solid outlet
 facet normal  0.000000e+00  0.000000e+00  1.000000e+00
   outer loop
     vertex -4.491064e-05  3.978736e-05  1.000000e-03
     vertex -6.000000e-05  0.000000e+00  1.000000e-03
     vertex -5.825651e-05 -1.435894e-05  1.000000e-03
   endloop
 endfacet
 facet normal  0.000000e+00  0.000000e+00  1.000000e+00
   outer loop
     vertex -4.491064e-05  3.978736e-05  1.000000e-03
     vertex -5.825651e-05 -1.435894e-05  1.000000e-03
     vertex -5.312736e-05 -2.788339e-05  1.000000e-03
   endloop
 endfacet
 facet normal  0.000000e+00  0.000000e+00  1.000000e+00
   outer loop
     vertex -4.491064e-05  3.978736e-05  1.000000e-03
     vertex -5.312736e-05 -2.788339e-05  1.000000e-03
     vertex -4.491064e-05 -3.978736e-05  1.000000e-03
   endloop
 endfacet
 facet normal  0.000000e+00  0.000000e+00  1.000000e+00
   outer loop
     vertex -4.491064e-05  3.978736e-05  1.000000e-03
     vertex -4.491064e-05 -3.978736e-05  1.000000e-03
     vertex -3.408388e-05 -4.937903e-05  1.000000e-03
   endloop
 endfacet
 facet normal  0.000000e+00  0.000000e+00  1.000000e+00
   outer loop
     vertex -4.491064e-05  3.978736e-05  1.000000e-03
     vertex -3.408388e-05 -4.937903e-05  1.000000e-03
     vertex -2.127629e-05 -5.610097e-05  1.000000e-03
   endloop
 endfacet
 facet normal  0.000000e+00  0.000000e+00  1.000000e+00
   outer loop
     vertex -4.491064e-05  3.978736e-05  1.000000e-03
     vertex -2.127629e-05 -5.610097e-05  1.000000e-03
     vertex -7.232201e-06 -5.956253e-05  1.000000e-03
   endloop
 endfacet
 facet normal  0.000000e+00  0.000000e+00  1.000000e+00
   outer loop
     vertex -4.491064e-05  3.978736e-05  1.000000e-03
     vertex -7.232201e-06 -5.956253e-05  1.000000e-03
     vertex  7.232201e-06 -5.956253e-05  1.000000e-03
   endloop
 endfacet
 facet normal  0.000000e+00  0.000000e+00  1.000000e+00
   outer loop
     vertex -4.491064e-05  3.978736e-05  1.000000e-03
     vertex  7.232201e-06 -5.956253e-05  1.000000e-03
     vertex  2.127629e-05 -5.610097e-05  1.000000e-03
   endloop
 endfacet
 facet normal  0.000000e+00  0.000000e+00  1.000000e+00
   outer loop
     vertex -4.491064e-05  3.978736e-05  1.000000e-03
     vertex  2.127629e-05 -5.610097e-05  1.000000e-03
     vertex  3.408388e-05 -4.937903e-05  1.000000e-03
   endloop
 endfacet
 facet normal  0.000000e+00  0.000000e+00  1.000000e+00
   outer loop
     vertex -4.491064e-05  3.978736e-05  1.000000e-03
     vertex  3.408388e-05 -4.937903e-05  1.000000e-03
     vertex  4.491064e-05 -3.978736e-05  1.000000e-03
   endloop
 endfacet
 facet normal  0.000000e+00  0.000000e+00  1.000000e+00
   outer loop
     vertex -4.491064e-05  3.978736e-05  1.000000e-03
     vertex  4.491064e-05 -3.978736e-05  1.000000e-03
     vertex  5.312736e-05 -2.788339e-05  1.000000e-03
   endloop
 endfacet
 facet normal  0.000000e+00  0.000000e+00  1.000000e+00
   outer loop
     vertex -4.491064e-05  3.978736e-05  1.000000e-03
     vertex  5.312736e-05 -2.788339e-05  1.000000e-03
     vertex  5.825651e-05 -1.435894e-05  1.000000e-03
   endloop
 endfacet
 facet normal  0.000000e+00  0.000000e+00  1.000000e+00
   outer loop
     vertex -4.491064e-05  3.978736e-05  1.000000e-03
     vertex  5.825651e-05 -1.435894e-05  1.000000e-03
     vertex  6.000000e-05 -6.063859e-20  1.000000e-03
   endloop
 endfacet
 facet normal  0.000000e+00  0.000000e+00  1.000000e+00
   outer loop
     vertex -4.491064e-05  3.978736e-05  1.000000e-03
     vertex  6.000000e-05 -6.063859e-20  1.000000e-03
     vertex  5.825651e-05  1.435894e-05  1.000000e-03
   endloop
 endfacet
 facet normal  0.000000e+00  0.000000e+00  1.000000e+00
   outer loop
     vertex -4.491064e-05  3.978736e-05  1.000000e-03
     vertex  5.825651e-05  1.435894e-05  1.000000e-03
     vertex  5.312736e-05  2.788339e-05  1.000000e-03
   endloop
 endfacet
 facet normal  0.000000e+00  0.000000e+00  1.000000e+00
   outer loop
     vertex -4.491064e-05  3.978736e-05  1.000000e-03
     vertex  5.312736e-05  2.788339e-05  1.000000e-03
     vertex  4.491064e-05  3.978736e-05  1.000000e-03
   endloop
 endfacet
 facet normal -0.000000e+00  0.000000e+00  1.000000e+00
   outer loop
     vertex -4.491064e-05  3.978736e-05  1.000000e-03
     vertex  4.491064e-05  3.978736e-05  1.000000e-03
     vertex  3.408388e-05  4.937903e-05  1.000000e-03
   endloop
 endfacet
 facet normal  0.000000e+00  0.000000e+00  1.000000e+00
   outer loop
     vertex -4.491064e-05  3.978736e-05  1.000000e-03
     vertex  3.408388e-05  4.937903e-05  1.000000e-03
     vertex  2.127629e-05  5.610097e-05  1.000000e-03
   endloop
 endfacet
 facet normal  0.000000e+00  0.000000e+00  1.000000e+00
   outer loop
     vertex -4.491064e-05  3.978736e-05  1.000000e-03
     vertex  2.127629e-05  5.610097e-05  1.000000e-03
     vertex  7.232201e-06  5.956253e-05  1.000000e-03
   endloop
 endfacet
 facet normal  0.000000e+00  0.000000e+00  1.000000e+00
   outer loop
     vertex -4.491064e-05  3.978736e-05  1.000000e-03
     vertex  7.232201e-06  5.956253e-05  1.000000e-03
     vertex -7.232201e-06  5.956253e-05  1.000000e-03
   endloop
 endfacet
 facet normal  0.000000e+00  0.000000e+00  1.000000e+00
   outer loop
     vertex -4.491064e-05  3.978736e-05  1.000000e-03
     vertex -7.232201e-06  5.956253e-05  1.000000e-03
     vertex -2.127629e-05  5.610097e-05  1.000000e-03
   endloop
 endfacet
 facet normal  0.000000e+00  0.000000e+00  1.000000e+00
   outer loop
     vertex -4.491064e-05  3.978736e-05  1.000000e-03
     vertex -2.127629e-05  5.610097e-05  1.000000e-03
     vertex -3.408388e-05  4.937903e-05  1.000000e-03
   endloop
 endfacet
 facet normal  0.000000e+00  0.000000e+00  1.000000e+00
   outer loop
     vertex -4.491064e-05  3.978736e-05  1.000000e-03
     vertex -5.312736e-05  2.788339e-05  1.000000e-03
     vertex -5.825651e-05  1.435894e-05  1.000000e-03
   endloop
 endfacet
 facet normal  0.000000e+00  0.000000e+00  1.000000e+00
   outer loop
     vertex -4.491064e-05  3.978736e-05  1.000000e-03
     vertex -5.825651e-05  1.435894e-05  1.000000e-03
     vertex -6.000000e-05  0.000000e+00  1.000000e-03
   endloop
 endfacet
endsolid
