solid 
 facet normal -1.000000e+00  0.000000e+00  0.000000e+00
   outer loop
     vertex -1.250000e-04  3.000000e-05  0.000000e+00
     vertex -1.250000e-04 -3.000000e-05  0.000000e+00
     vertex -1.250000e-04 -3.000000e-05  5.000000e-04
   endloop
 endfacet
 facet normal -1.000000e+00  0.000000e+00  0.000000e+00
   outer loop
     vertex -1.250000e-04  3.000000e-05  0.000000e+00
     vertex -1.250000e-04 -3.000000e-05  5.000000e-04
     vertex -1.250000e-04  3.000000e-05  5.000000e-04
   endloop
 endfacet
 facet normal  0.000000e+00 -1.000000e+00  0.000000e+00
   outer loop
     vertex -1.250000e-04 -3.000000e-05  0.000000e+00
     vertex  1.250000e-04 -3.000000e-05  0.000000e+00
     vertex  1.250000e-04 -3.000000e-05  5.000000e-04
   endloop
 endfacet
 facet normal  0.000000e+00 -1.000000e+00  0.000000e+00
   outer loop
     vertex -1.250000e-04 -3.000000e-05  0.000000e+00
     vertex  1.250000e-04 -3.000000e-05  5.000000e-04
     vertex -1.250000e-04 -3.000000e-05  5.000000e-04
   endloop
 endfacet
 facet normal  0.000000e+00  1.000000e+00  0.000000e+00
   outer loop
     vertex  1.250000e-04  3.000000e-05  0.000000e+00
     vertex -1.250000e-04  3.000000e-05  0.000000e+00
     vertex -1.250000e-04  3.000000e-05  5.000000e-04
   endloop
 endfacet
 facet normal  0.000000e+00  1.000000e+00 -0.000000e+00
   outer loop
     vertex  1.250000e-04  3.000000e-05  0.000000e+00
     vertex -1.250000e-04  3.000000e-05  5.000000e-04
     vertex  1.250000e-04  3.000000e-05  5.000000e-04
   endloop
 endfacet
 facet normal  1.000000e+00  0.000000e+00  0.000000e+00
   outer loop
     vertex  1.250000e-04 -3.000000e-05  0.000000e+00
     vertex  1.250000e-04  3.000000e-05  0.000000e+00
     vertex  1.250000e-04  3.000000e-05  5.000000e-04
   endloop
 endfacet
 facet normal  1.000000e+00  0.000000e+00  0.000000e+00
   outer loop
     vertex  1.250000e-04 -3.000000e-05  0.000000e+00
     vertex  1.250000e-04  3.000000e-05  5.000000e-04
     vertex  1.250000e-04 -3.000000e-05  5.000000e-04
   endloop
 endfacet
endsolid
